<svg width="40" height="40" viewBox="0 0 40 40" fill="none" xmlns="http://www.w3.org/2000/svg">
<path d="M6.78929 32.9005C5.78248 32.9005 4.9635 32.0837 4.9635 31.0795V8.92048C4.9635 7.91632 5.78248 7.0995 6.78929 7.0995H33.2107C34.2175 7.0995 35.0365 7.91632 35.0365 8.92048V31.0795C35.0365 32.0837 34.2175 32.9005 33.2107 32.9005H6.78929ZM6.78929 8.21982C6.40235 8.21982 6.09053 8.53081 6.09053 8.91674V31.0758C6.09053 31.4617 6.4061 31.7727 6.78929 31.7727H33.2107C33.5976 31.7727 33.9095 31.4617 33.9095 31.0758V8.91674C33.9095 8.53081 33.5939 8.21982 33.2107 8.21982H6.78929Z" fill="#131C50"/>
<path d="M13.852 12.7948C14.4558 12.7948 14.9453 12.3066 14.9453 11.7044C14.9453 11.1022 14.4558 10.6141 13.852 10.6141C13.2483 10.6141 12.7588 11.1022 12.7588 11.7044C12.7588 12.3066 13.2483 12.7948 13.852 12.7948Z" fill="#131C50"/>
<path d="M10.0877 12.7948C10.6915 12.7948 11.181 12.3066 11.181 11.7044C11.181 11.1022 10.6915 10.6141 10.0877 10.6141C9.48397 10.6141 8.99452 11.1022 8.99452 11.7044C8.99452 12.3066 9.48397 12.7948 10.0877 12.7948Z" fill="#131C50"/>
<path d="M17.312 12.7948C17.9158 12.7948 18.4052 12.3066 18.4052 11.7044C18.4052 11.1022 17.9158 10.6141 17.312 10.6141C16.7083 10.6141 16.2188 11.1022 16.2188 11.7044C16.2188 12.3066 16.7083 12.7948 17.312 12.7948Z" fill="#131C50"/>
<path d="M34.4692 14.9117H5.52326V16.0358H34.4692V14.9117Z" fill="#131C50"/>
<path d="M15.1256 22.4879L11.196 23.908L15.1256 25.3168V26.8568L9.51671 24.6761V23.1474L15.1256 20.9405V22.4879Z" fill="#131C50"/>
<path d="M22.9735 18.7373L17.7365 28.8801H16.1624L21.3994 18.7373H22.9735Z" fill="#131C50"/>
<path d="M24.0141 20.9442L29.5967 23.1511V24.6799L24.0141 26.8605V25.3206L27.9324 23.9117L24.0141 22.4917V20.9442Z" fill="#131C50"/>
</svg>
