<svg width="40" height="40" viewBox="0 0 40 40" fill="none" xmlns="http://www.w3.org/2000/svg">
<path d="M33.2094 32.9H6.79064C5.78392 32.9 4.96503 32.0833 4.96503 31.0794V8.92065C4.96503 7.91668 5.78392 7.10001 6.79064 7.10001H33.2094C34.2161 7.10001 35.035 7.91668 35.035 8.92065V31.0756C35.035 32.0796 34.2161 32.8963 33.2094 32.8963V32.9ZM6.79064 8.22386C6.40373 8.22386 6.09195 8.5348 6.09195 8.92065V31.0756C6.09195 31.4615 6.40749 31.7724 6.79064 31.7724H33.2094C33.5963 31.7724 33.9081 31.4615 33.9081 31.0756V8.92065C33.9081 8.5348 33.5926 8.22386 33.2094 8.22386H6.79064Z" fill="#131C50"/>
<path d="M13.8564 12.7942C14.4601 12.7942 14.9495 12.3061 14.9495 11.7041C14.9495 11.102 14.4601 10.6139 13.8564 10.6139C13.2527 10.6139 12.7633 11.102 12.7633 11.7041C12.7633 12.3061 13.2527 12.7942 13.8564 12.7942Z" fill="#131C50"/>
<path d="M10.0925 12.7942C10.6962 12.7942 11.1856 12.3061 11.1856 11.7041C11.1856 11.102 10.6962 10.6139 10.0925 10.6139C9.48881 10.6139 8.9994 11.102 8.9994 11.7041C8.9994 12.3061 9.48881 12.7942 10.0925 12.7942Z" fill="#131C50"/>
<path d="M17.3123 12.7942C17.916 12.7942 18.4054 12.3061 18.4054 11.7041C18.4054 11.102 17.916 10.6139 17.3123 10.6139C16.7086 10.6139 16.2192 11.102 16.2192 11.7041C16.2192 12.3061 16.7086 12.7942 17.3123 12.7942Z" fill="#131C50"/>
<path d="M34.4716 14.9108H5.52849V16.0347H34.4716V14.9108Z" fill="#131C50"/>
<path d="M15.205 18.8068V19.8071C14.8819 19.8071 14.6603 19.852 14.5439 19.9382C14.4274 20.0244 14.3673 20.2079 14.3673 20.4889V22.1484C14.3748 22.4556 14.3485 22.7104 14.2847 22.9127C14.2208 23.115 14.1081 23.2723 13.9428 23.3922C13.7775 23.5083 13.5409 23.5945 13.2329 23.6469C13.5409 23.7331 13.7813 23.8417 13.9503 23.9728C14.1194 24.1002 14.2396 24.2575 14.3072 24.4411C14.3786 24.6247 14.4124 24.8457 14.4124 25.1004V27.4118C14.4124 27.6816 14.4725 27.8614 14.5889 27.9438C14.7054 28.0262 14.927 28.0712 15.2501 28.0712V29.0714C14.6828 29.1463 14.2246 29.1238 13.8715 29.0115C13.5184 28.8991 13.2592 28.7118 13.0939 28.457C12.9286 28.2023 12.846 27.8914 12.846 27.5317V24.9131C12.846 24.7371 12.8272 24.6059 12.7859 24.5235C12.7445 24.4411 12.6807 24.3737 12.5943 24.3325C12.5079 24.2875 12.3877 24.2388 12.2412 24.1789V23.1225C12.3952 23.07 12.5116 23.0288 12.5943 22.9913C12.6732 22.9539 12.7295 22.8902 12.7596 22.8003C12.7896 22.7104 12.8046 22.5568 12.8046 22.3432V20.354C12.8046 19.9869 12.8873 19.676 13.0526 19.425C13.2178 19.174 13.477 18.9904 13.8301 18.8743C14.1832 18.7619 14.6415 18.7394 15.2087 18.8143L15.205 18.8068Z" fill="#131C50"/>
<path d="M25.5238 18.8068C26.0985 18.7319 26.5606 18.7544 26.9137 18.8668C27.2668 18.9792 27.5222 19.1627 27.6837 19.4175C27.8453 19.6685 27.9279 19.9794 27.9279 20.3465V22.3358C27.9279 22.5493 27.9429 22.6991 27.973 22.7928C28.003 22.8864 28.0594 22.9501 28.1458 22.9838C28.2284 23.0213 28.3486 23.0663 28.5026 23.115V24.1714C28.3561 24.2313 28.2359 24.28 28.1458 24.325C28.0556 24.3699 27.988 24.4336 27.9467 24.516C27.9054 24.6022 27.8866 24.7296 27.8866 24.9056V27.5242C27.8866 27.8839 27.804 28.191 27.6424 28.4495C27.4809 28.708 27.2217 28.8916 26.8724 29.004C26.5193 29.1164 26.0572 29.1388 25.4825 29.0639V28.0637C25.8131 28.0637 26.0384 28.0225 26.1549 27.9363C26.2713 27.8501 26.3314 27.6741 26.3314 27.4043V25.0929C26.339 24.8382 26.3765 24.6172 26.4404 24.4336C26.5042 24.2501 26.6244 24.0927 26.7935 23.9653C26.9625 23.838 27.1992 23.7293 27.4997 23.6394C27.1992 23.587 26.9663 23.5046 26.801 23.3847C26.6357 23.2686 26.523 23.1075 26.4592 22.9052C26.3953 22.7029 26.369 22.4481 26.3765 22.141V20.4814C26.3765 20.2042 26.3164 20.0206 26.2 19.9307C26.0835 19.8408 25.8581 19.7996 25.5276 19.7996V18.7994L25.5238 18.8068Z" fill="#131C50"/>
</svg>
